<svg xmlns="http://www.w3.org/2000/svg" xmlns:xlink="http://www.w3.org/1999/xlink" width="500" zoomAndPan="magnify" viewBox="0 0 375 374.999991" height="500" preserveAspectRatio="xMidYMid meet" version="1.0"><defs><clipPath id="64a217a952"><path d="M 151 108.792969 L 254 108.792969 L 254 245 L 151 245 Z M 151 108.792969 " clip-rule="nonzero"/></clipPath><clipPath id="9280334226"><path d="M 113.023438 224 L 262 224 L 262 265 L 113.023438 265 Z M 113.023438 224 " clip-rule="nonzero"/></clipPath></defs><g clip-path="url(#64a217a952)"><path fill="#3b82f6" d="M 195.855469 108.875 C 195.855469 108.875 232.53125 203.273438 151.144531 244.574219 C 178.074219 242.058594 226.785156 206.601562 253.257812 219.640625 C 253.257812 219.640625 256.898438 163.335938 195.855469 108.875 " fill-opacity="1" fill-rule="nonzero"/></g><g clip-path="url(#9280334226)"><path fill="#3b82f6" d="M 113.03125 257.011719 C 115.097656 258.0625 117.222656 259.003906 119.390625 259.824219 C 135.949219 266.089844 154.179688 264.9375 170.992188 260.316406 C 189.382812 255.257812 205.257812 245.035156 222.308594 236.851562 C 234.640625 230.929688 248.722656 227.078125 261.960938 232.472656 C 245.25 219.695312 219.773438 225.425781 202.699219 233.773438 C 185.847656 242.011719 170.441406 252.121094 151.9375 256.417969 C 140.175781 259.148438 127.253906 260.332031 115.351562 257.613281 C 114.570312 257.4375 113.796875 257.246094 113.03125 257.011719 " fill-opacity="1" fill-rule="nonzero"/></g><path fill="#3b82f6" d="M 196.777344 184.273438 C 190.140625 169.238281 178.738281 151.546875 159.167969 134.085938 C 159.167969 134.085938 189.03125 210.945312 122.761719 244.574219 C 134.957031 243.433594 152.636719 234 169.632812 227.679688 C 183.199219 216.171875 192.273438 201.664062 196.777344 184.273438 " fill-opacity="1" fill-rule="nonzero"/></svg>