<svg width="28" height="29" viewBox="0 0 28 29" fill="none" xmlns="http://www.w3.org/2000/svg">
<g clip-path="url(#clip0_1286_3365)">
<path d="M17.5583 6.50001C18.6979 6.72234 19.7451 7.27964 20.5661 8.1006C21.387 8.92156 21.9443 9.96882 22.1667 11.1083M17.5583 1.83334C19.9258 2.09635 22.1335 3.15655 23.819 4.83985C25.5044 6.52316 26.5673 8.72952 26.8333 11.0967M25.6667 20.4067V23.9067C25.668 24.2316 25.6014 24.5532 25.4713 24.8509C25.3411 25.1486 25.1502 25.4159 24.9108 25.6355C24.6713 25.8552 24.3887 26.0224 24.0809 26.1265C23.7731 26.2306 23.4469 26.2693 23.1233 26.24C19.5333 25.8499 16.0848 24.6232 13.055 22.6583C10.2361 20.8671 7.84623 18.4772 6.055 15.6583C4.08331 12.6147 2.85629 9.1495 2.47334 5.54334C2.44418 5.22072 2.48252 4.89556 2.58592 4.58857C2.68932 4.28158 2.8555 3.99948 3.0739 3.76023C3.29229 3.52099 3.55811 3.32984 3.85443 3.19895C4.15074 3.06807 4.47107 3.00032 4.795 3.00001H8.295C8.86119 2.99444 9.41009 3.19494 9.83939 3.56413C10.2687 3.93333 10.5491 4.44603 10.6283 5.00668C10.7761 6.12675 11.05 7.22652 11.445 8.28501C11.602 8.70259 11.6359 9.15641 11.5429 9.5927C11.4498 10.029 11.2337 10.4295 10.92 10.7467L9.43834 12.2283C11.0992 15.1491 13.5175 17.5675 16.4383 19.2283L17.92 17.7467C18.2372 17.433 18.6377 17.2168 19.074 17.1238C19.5103 17.0307 19.9641 17.0647 20.3817 17.2217C21.4402 17.6167 22.5399 17.8906 23.66 18.0383C24.2267 18.1183 24.7443 18.4037 25.1143 18.8404C25.4843 19.2771 25.6809 19.8345 25.6667 20.4067Z" stroke="#3B82F6" stroke-width="2" stroke-linecap="round" stroke-linejoin="round"/>
</g>
<defs>
<clipPath id="clip0_1286_3365">
<rect width="28" height="28" fill="white" transform="translate(0 0.666687)"/>
</clipPath>
</defs>
</svg>
