<svg width="1563" height="1563" viewBox="0 0 1563 1563" fill="none" xmlns="http://www.w3.org/2000/svg">
<path d="M814.163 24C824.609 31.4698 833.996 39.4164 843.04 48.5225C844.257 49.7356 845.474 50.9487 846.728 52.1986C849.282 54.7502 851.831 57.3066 854.376 59.8676C858.211 63.7228 862.066 67.5572 865.924 71.3899C879.666 85.1174 892.455 99.0443 904.48 114.314C906.275 116.432 908.084 118.539 909.915 120.626C941.442 156.78 967.343 197.565 990.954 239.216C992.03 241.099 992.03 241.099 993.128 243.02C1037.74 321.748 1064.93 413.747 1063.98 504.392C1060.94 503.385 1060.94 503.385 1057.84 502.358C968.637 473.764 869.956 520.886 789.182 556.439C669.5 608.953 669.5 608.953 622 612C628.962 603.909 637.539 599.554 646.741 594.466C692.213 568.709 734.192 534.388 766.122 492.863C766.984 491.752 767.847 490.641 768.735 489.497C812.321 432.666 835.727 365.396 844.909 294.941C845.085 293.595 845.261 292.249 845.441 290.862C855.54 207.29 843.725 120.987 818.389 41.129C816.6 35.4626 815.157 29.8695 814.163 24Z" fill="white"/>
<path d="M331.231 860.093C334.219 860.195 334.219 860.195 337.268 860.3C391.958 862.142 391.958 862.142 446.618 860.093C450.702 869.268 454.123 878.448 457.067 888.054C457.987 891.001 458.906 893.948 459.826 896.895C460.314 898.465 460.802 900.035 461.304 901.653C472.522 937.676 484.23 973.539 496.138 1009.34C496.544 1010.56 496.95 1011.78 497.369 1013.04C510.43 1052.3 524.068 1091.32 538.366 1130.15C539.012 1131.91 539.658 1133.66 540.324 1135.47C541.505 1138.68 542.692 1141.89 543.887 1145.09C547.808 1155.72 551.164 1166.45 554.312 1177.33C555.582 1177.33 556.851 1177.33 558.159 1177.33C558.485 1176.06 558.811 1174.78 559.148 1173.47C562.646 1160.18 566.901 1147.37 571.688 1134.5C573.243 1130.27 574.797 1126.04 576.352 1121.81C577.574 1118.49 577.574 1118.49 578.821 1115.11C583.188 1103.27 587.52 1091.41 591.843 1079.55C592.285 1078.33 592.728 1077.12 593.184 1075.87C602.47 1050.37 611.451 1024.78 620.299 999.125C621.002 997.087 621.705 995.05 622.429 992.951C634.109 959.062 645.683 925.136 657.19 891.188C658.05 888.654 658.05 888.654 658.928 886.069C659.994 882.928 661.059 879.786 662.12 876.643C665.637 866.293 665.637 866.293 667.776 862.015C669.168 862.026 670.559 862.036 671.993 862.046C707.353 862.272 707.353 862.272 742.67 860.781C755.545 859.939 768.341 859.906 781.24 860.093C783.467 866.774 782.726 869.969 781.36 876.796C780.798 879.662 780.798 879.662 780.226 882.586C779.776 884.776 779.776 884.776 779.317 887.01C777.368 887.498 775.42 887.987 773.412 888.49C770.813 889.157 768.213 889.826 765.614 890.495C764.335 890.813 763.056 891.132 761.738 891.46C751.21 894.194 742.053 896.767 734.805 905.363C730.24 913.865 730.171 919.843 730.42 929.331C730.445 931.195 730.47 933.058 730.496 934.979C731.244 969.466 733.949 1003.93 736.251 1038.34C736.775 1046.23 737.283 1054.13 737.791 1062.02C740.058 1097.22 742.384 1132.42 745.339 1167.57C745.564 1170.26 745.783 1172.95 745.997 1175.63C747.663 1209.44 747.663 1209.44 762.009 1238.86C767.859 1241.78 774.087 1241.5 780.518 1241.86C781.877 1241.94 783.235 1242.03 784.635 1242.11C787.99 1242.32 791.346 1242.51 794.701 1242.7C797.206 1250.21 795.621 1254.61 793.86 1262.29C793.307 1264.73 792.754 1267.18 792.185 1269.7C791.746 1271.58 791.307 1273.45 790.855 1275.39C789.798 1275.38 788.741 1275.38 787.652 1275.37C776.544 1275.33 765.436 1275.3 754.327 1275.28C750.194 1275.27 746.061 1275.26 741.929 1275.24C712.839 1274.96 712.839 1274.96 683.837 1276.88C675.933 1277.63 668.014 1277.47 660.084 1277.31C660.355 1273.26 660.637 1269.22 660.925 1265.17C661.159 1261.79 661.159 1261.79 661.398 1258.35C662.007 1252.31 662.007 1252.31 663.93 1246.55C670.129 1244.35 676.397 1242.86 682.778 1241.27C691.055 1238.02 694.635 1233.22 698.546 1225.4C700.06 1194.24 697.03 1163.17 694.407 1132.15C693.977 1126.96 693.552 1121.78 693.127 1116.59C692.24 1105.81 691.342 1095.03 690.435 1084.25C689.388 1071.8 688.357 1059.36 687.335 1046.91C686.24 1033.58 685.135 1020.25 684.027 1006.92C683.71 1003.1 683.395 999.278 683.08 995.458C682.492 988.364 681.897 981.269 681.298 974.175C681.039 971.018 681.039 971.018 680.774 967.796C680.61 965.867 680.445 963.938 680.276 961.951C680.066 959.442 680.066 959.442 679.852 956.883C679.35 952.676 678.524 948.767 677.392 944.69C656.087 1002.15 634.977 1059.68 614.289 1117.37C613.355 1119.97 612.421 1122.58 611.487 1125.18C609.639 1130.33 607.791 1135.49 605.943 1140.64C605.491 1141.9 605.04 1143.16 604.575 1144.46C603.673 1146.97 602.77 1149.49 601.868 1152.01C593.652 1174.92 585.392 1197.81 577.08 1220.69C575.786 1224.25 574.493 1227.81 573.202 1231.37C569.942 1240.36 566.656 1249.34 563.33 1258.3C562.119 1261.62 560.962 1264.95 559.812 1268.29C559.185 1270.03 558.557 1271.78 557.911 1273.58C557.176 1275.72 557.176 1275.72 556.426 1277.9C553.408 1282.55 550.479 1283.04 545.177 1284.28C542.462 1284.6 539.736 1284.87 537.004 1285C528.464 1265.68 521.543 1245.84 514.564 1225.92C510.949 1215.61 507.311 1205.31 503.673 1195C502.552 1191.83 502.552 1191.83 501.408 1188.59C493.869 1167.25 486.187 1145.97 478.469 1124.7C477.806 1122.87 477.143 1121.04 476.459 1119.16C475.793 1117.32 475.128 1115.49 474.442 1113.6C473.085 1109.86 471.728 1106.12 470.371 1102.38C469.696 1100.52 469.021 1098.66 468.325 1096.74C463.121 1082.39 457.951 1068.02 452.793 1053.65C452.024 1051.51 451.254 1049.37 450.462 1047.16C444.369 1030.2 444.369 1030.2 441.47 1022.1C439.421 1016.38 437.367 1010.66 435.312 1004.94C434.738 1003.33 434.164 1001.72 433.573 1000.07C426.664 980.863 419.299 961.827 412.002 942.767C409.52 973.906 407.045 1005.05 404.579 1036.19C403.434 1050.65 402.286 1065.11 401.132 1079.57C400.125 1092.2 399.123 1104.83 398.126 1117.45C397.599 1124.12 397.07 1130.79 396.536 1137.45C394.597 1161.66 392.68 1185.87 391.294 1210.12C391.187 1211.74 391.08 1213.37 390.969 1215.04C390.548 1223.29 390.585 1229.49 394.694 1236.93C399.303 1241.54 400.598 1241.32 406.909 1241.57C409.363 1241.69 409.363 1241.69 411.867 1241.8C413.577 1241.86 415.288 1241.92 417.05 1241.98C419.638 1242.09 419.638 1242.09 422.279 1242.21C426.545 1242.39 430.812 1242.55 435.079 1242.7C437.862 1250.15 436.126 1255.82 434.238 1263.37C433.409 1266.75 433.409 1266.75 432.563 1270.19C432.124 1271.9 431.685 1273.62 431.233 1275.39C428.783 1275.38 426.332 1275.37 423.808 1275.36C414.557 1275.32 405.306 1275.3 396.055 1275.28C392.081 1275.27 388.107 1275.26 384.133 1275.24C360.008 1275.14 336.063 1275.51 312 1277.31C313.683 1250.87 313.683 1250.87 315.846 1246.55C319.903 1245.18 319.903 1245.18 324.981 1243.9C333.192 1241.51 338.927 1239.7 344.693 1233.09C350.852 1220.65 353.84 1208.43 355.404 1194.72C355.744 1192.01 355.744 1192.01 356.091 1189.24C356.814 1183.35 357.491 1177.46 358.155 1171.56C358.38 1169.58 358.606 1167.6 358.838 1165.56C360.544 1150.43 362.129 1135.29 363.699 1120.15C364.203 1115.32 364.707 1110.5 365.212 1105.68C366.261 1095.65 367.304 1085.62 368.344 1075.6C369.405 1065.37 370.471 1055.15 371.544 1044.92C372.854 1032.44 374.157 1019.97 375.455 1007.49C375.945 1002.78 376.437 998.073 376.931 993.365C385.237 947.7 385.237 947.7 377.386 904.314C365.606 891.109 343.955 889.687 327.385 887.01C327.657 883.605 327.939 880.2 328.226 876.796C328.382 874.9 328.539 873.004 328.7 871.05C329.308 865.861 329.308 865.861 331.231 860.093Z" fill="white"/>
<path d="M1045.49 860.023C1046.97 860.015 1048.45 860.008 1049.97 860C1088.75 860.021 1126.72 869.69 1160.27 889.049C1162.18 890.119 1164.09 891.189 1166.06 892.291C1180.53 900.92 1192.52 911.933 1204.45 923.709C1205.86 925.072 1207.27 926.435 1208.71 927.839C1243.75 964.286 1253.83 1015.78 1252.95 1064.55C1251.22 1117.18 1232.28 1164.61 1198.69 1204.84C1197.47 1206.38 1196.26 1207.91 1195.01 1209.49C1160.97 1250.66 1106.2 1276.59 1053.6 1281.57C1035 1282.72 1016.86 1281.41 998.37 1279.39C958.465 1275.12 919.65 1274.69 879.822 1279.94C876.921 1280.31 874.02 1280.67 871.118 1281.03C868.92 1281.31 866.721 1281.58 864.455 1281.87C863.568 1257.3 863.568 1257.3 868.297 1249.13C874.471 1246.55 880.627 1244.83 887.101 1243.15C897.4 1240.27 905.021 1235.46 910.557 1226.02C915.075 1215.4 915.063 1205.37 915.194 1194.01C915.231 1191.91 915.269 1189.81 915.307 1187.65C915.426 1180.54 915.514 1173.44 915.599 1166.33C915.652 1162.57 915.705 1158.8 915.758 1155.04C916.44 1105.53 916.581 1056.02 916.667 1006.51C916.679 1000.38 916.699 994.254 916.72 988.129C916.752 978.372 916.764 968.615 916.76 958.858C916.761 955.234 916.769 951.611 916.784 947.987C916.884 922.149 916.884 922.149 912.478 896.751C907.204 895.377 902.346 894.506 896.9 894.216C895.452 894.136 894.003 894.055 892.511 893.972C890.271 893.858 890.271 893.858 887.986 893.743C886.463 893.659 884.941 893.576 883.372 893.491C879.628 893.287 875.883 893.093 872.139 892.9C869.266 887.14 870.894 882.697 871.899 876.412C872.25 874.146 872.602 871.88 872.964 869.545C874.06 864.017 874.06 864.017 875.981 862.091C880.3 861.943 884.625 861.932 888.947 861.971C891.772 861.987 894.597 862.004 897.423 862.02C898.934 862.032 900.445 862.043 902.001 862.056C934.089 862.296 966.124 861.783 998.197 860.85C1013.96 860.399 1029.72 860.064 1045.49 860.023ZM977.788 896.751C974.542 902.097 973.433 906.321 973.205 912.533C973.138 914.133 973.071 915.733 973.002 917.381C972.947 919.123 972.892 920.865 972.835 922.659C972.763 924.509 972.69 926.358 972.616 928.264C972.379 934.423 972.168 940.582 971.958 946.741C971.797 951.094 971.635 955.447 971.471 959.8C971.129 968.991 970.8 978.183 970.479 987.374C970.078 998.87 969.656 1010.36 969.226 1021.86C968.148 1050.76 967.167 1079.66 966.262 1108.56C966.194 1110.72 966.126 1112.87 966.056 1115.08C965.666 1127.54 965.303 1140 964.982 1152.45C964.882 1156.24 964.774 1160.03 964.659 1163.82C962.582 1198.64 962.582 1198.64 974.606 1230.42C990.371 1246.82 1015.12 1247.2 1036.36 1247.85C1076.64 1248.46 1112.91 1238.77 1142.98 1210.62C1176.84 1177.06 1191.46 1130.49 1192.93 1083.53C1193 1081.47 1193.08 1079.41 1193.16 1077.29C1194.1 1028.61 1182.74 981.283 1148.75 944.891C1113.7 908.669 1062.31 896.366 1013.8 893.382C1012.21 893.272 1010.62 893.162 1008.99 893.049C998.61 892.52 987.405 892.321 977.788 896.751Z" fill="white"/>
<path d="M656.597 134C664.559 138.313 670.707 143.7 677.037 150.077C678.049 151.084 679.06 152.091 680.102 153.129C682.238 155.26 684.368 157.397 686.495 159.538C689.684 162.745 692.893 165.932 696.104 169.117C708.786 181.774 720.38 194.814 731.514 208.867C733.241 210.93 734.977 212.984 736.729 215.024C768.986 252.811 793.768 295.142 816.036 339.406C817.143 341.365 817.143 341.365 818.273 343.365C824.175 357.04 813.452 378.568 808.539 391.706C791.378 434.782 768.285 472.636 736.687 506.605C734.026 509.471 731.368 512.342 728.78 515.274C711.505 534.797 695.259 544.948 670.884 553.69C667.749 554.876 664.616 556.069 661.486 557.27C655.187 559.682 648.877 562.063 642.558 564.422C629.436 569.36 616.56 574.863 603.651 580.325C534.206 609.28 534.206 609.28 501 612C501 610.733 501 609.466 501 608.161C504.039 605.976 504.039 605.976 508.324 603.556C509.9 602.648 511.476 601.74 513.1 600.804C514.812 599.827 516.524 598.849 518.289 597.842C595.056 552.866 648.271 487.073 671.965 400.835C693.572 317.423 685.985 223.997 658.293 142.976C656.597 137.839 656.597 137.839 656.597 134Z" fill="white"/>
<path d="M1101 556.625C1100.36 557.9 1099.73 559.174 1099.07 560.486C1097.52 559.951 1095.96 559.416 1094.36 558.865C1092.3 558.166 1090.25 557.467 1088.13 556.746C1086.09 556.052 1084.06 555.358 1081.97 554.642C1053.92 545.857 1019.2 548.655 991.266 556.625C989.911 556.989 988.555 557.353 987.158 557.728C937.591 571.31 891.099 598.405 846.147 622.82C742.287 679.099 621.309 719.446 503.529 685.635C488.908 681.05 473.409 675.971 459.925 668.592C459.29 667.317 458.655 666.043 458 664.731C460.194 665.126 462.388 665.522 464.648 665.93C591.571 687.958 701.299 638.544 810.912 580.13C819.668 575.465 828.444 570.84 837.254 566.278C838.565 565.597 839.876 564.917 841.226 564.215C917.331 525.17 1026.83 501.106 1101 556.625Z" fill="white"/>
<path d="M864 1424C871.492 1425.86 872.914 1426.38 877.923 1431.45C879.049 1432.58 880.175 1433.71 881.336 1434.87C882.508 1436.08 883.68 1437.29 884.888 1438.53C886.101 1439.76 887.314 1440.99 888.564 1442.25C895.671 1449.49 902.536 1456.87 909.103 1464.6C914.365 1470.53 920.09 1475.99 925.788 1481.5C929.682 1485.49 929.682 1485.49 935.477 1493.18C935.477 1470.35 935.477 1447.52 935.477 1424C939.94 1424 944.402 1424 949 1424C948.362 1456.34 947.725 1488.68 947.068 1522C939.413 1520.1 938.018 1519.48 932.942 1514.19C931.769 1512.98 930.596 1511.76 929.388 1510.51C924.801 1505.52 920.366 1500.41 915.933 1495.29C910.598 1489.37 904.878 1483.86 899.188 1478.28C893.914 1472.96 888.988 1467.4 884.111 1461.72C882.012 1459.31 879.79 1457 877.523 1454.75C877.523 1476.31 877.523 1497.87 877.523 1520.08C873.06 1520.08 868.598 1520.08 864 1520.08C864 1488.37 864 1456.67 864 1424Z" fill="white"/>
<path d="M608.16 1422C610.694 1422 613.229 1422 615.84 1422C626.886 1445.86 637.929 1469.72 648.72 1493.7C649.422 1495.25 650.123 1496.81 650.846 1498.41C654.05 1505.56 657.175 1512.7 660 1520C653.664 1520 647.328 1520 640.8 1520C636.998 1510.49 633.197 1500.98 629.28 1491.18C615.974 1491.18 602.669 1491.18 588.96 1491.18C587.376 1495.58 585.792 1499.97 584.16 1504.51C583.659 1505.89 583.158 1507.28 582.641 1508.71C580.338 1514.22 580.338 1514.22 579.36 1520C574.291 1520 569.222 1520 564 1520C566.551 1511.91 569.592 1504.33 573.202 1496.66C574.249 1494.42 575.295 1492.18 576.373 1489.88C576.921 1488.72 577.468 1487.55 578.032 1486.36C580.866 1480.34 583.68 1474.31 586.492 1468.28C587.043 1467.1 587.593 1465.92 588.161 1464.7C593.148 1453.98 597.931 1443.17 602.559 1432.29C606.058 1424.1 606.058 1424.1 608.16 1422ZM608.16 1443.14C605.588 1448.82 603.033 1454.5 600.48 1460.19C599.747 1461.81 599.015 1463.43 598.26 1465.09C597.567 1466.64 596.874 1468.19 596.16 1469.78C595.516 1471.21 594.873 1472.64 594.21 1474.11C592.567 1477.68 592.567 1477.68 592.8 1481.57C603.571 1481.57 614.342 1481.57 625.44 1481.57C621.29 1468.23 616.044 1455.76 610.08 1443.14C609.446 1443.14 608.813 1443.14 608.16 1443.14Z" fill="white"/>
<path d="M1056.49 1425.94C1059.28 1430.88 1060.9 1435.83 1062.24 1441.32C1060.98 1440.81 1059.71 1440.29 1058.41 1439.76C1056.51 1439.01 1054.61 1438.25 1052.65 1437.48C1050.91 1436.72 1050.91 1436.72 1049.13 1435.94C1036.37 1430.62 1025.81 1429.78 1012.83 1434.71C1003.86 1439.06 1000.94 1443.82 997.004 1452.86C992.291 1467.03 994.3 1481.4 1000.32 1494.84C1005.82 1504.22 1013.66 1509.05 1023.87 1512.46C1029.16 1512.99 1029.16 1512.99 1034.54 1512.82C1037.22 1512.8 1037.22 1512.8 1039.94 1512.78C1045.48 1512.58 1045.48 1512.58 1052.65 1510.54C1052.02 1501.66 1051.38 1492.77 1050.73 1483.62C1056.43 1483.62 1062.13 1483.62 1068 1483.62C1067.99 1488.28 1067.9 1492.91 1067.76 1497.56C1067.77 1499.53 1067.77 1499.53 1067.78 1501.53C1067.63 1505.4 1067.63 1505.4 1066.08 1512.46C1054.15 1522.73 1041.22 1524.55 1025.91 1523.88C1008.08 1521.88 995.742 1514.72 984.292 1501.05C975.644 1488.05 976.526 1473.64 977.816 1458.63C982.032 1443.53 993.377 1433.63 1006.6 1425.94C1021.14 1420.11 1042.2 1418.63 1056.49 1425.94Z" fill="white"/>
<path d="M535.598 1423.38C536.839 1424.02 538.081 1424.65 539.36 1425.31C538.719 1430.39 538.079 1435.47 537.418 1440.7C535.736 1439.11 534.054 1437.53 532.322 1435.89C527.519 1431.91 525.947 1431.1 519.458 1430.24C513.852 1430.59 513.852 1430.59 510.235 1434.93C509.015 1441.65 508.805 1446.28 512.731 1452.1C516.305 1456.13 520.032 1459.96 523.827 1463.79C526.634 1466.87 529.426 1469.95 532.2 1473.05C533.474 1474.46 534.748 1475.86 536.061 1477.3C543.581 1485.99 544.231 1491.66 543.949 1502.79C542.773 1511.56 540.643 1514.11 533.535 1519.6C521.241 1524.6 510.943 1523.57 498.457 1519.83C494.702 1517.68 494.702 1517.68 493.14 1513.99C492.628 1508.57 493.607 1503.74 494.702 1498.43C495.984 1498.43 497.265 1498.43 498.586 1498.43C499.707 1500.26 500.828 1502.08 501.983 1503.96C505.881 1510.26 505.881 1510.26 512.056 1512.98C518.019 1514.27 518.019 1514.27 523.584 1512.02C528.298 1508.25 528.298 1508.25 528.924 1501.8C526.8 1489.17 519.852 1482.45 510.114 1474.5C500.178 1466.18 495.388 1457.98 493.853 1445.15C495.091 1435.86 499.104 1429.37 506.352 1423.38C516.054 1420.18 525.881 1420.24 535.598 1423.38Z" fill="white"/>
<path d="M733 1424C738.72 1424 744.44 1424 750.333 1424C750.333 1453.16 750.333 1482.31 750.333 1512.35C761.773 1511.09 773.213 1509.82 785 1508.51C785 1512.32 785 1516.12 785 1520.04C783.074 1521.96 783.074 1521.96 778.259 1522C776.171 1521.91 774.083 1521.82 771.932 1521.73C769.904 1521.64 767.875 1521.56 765.785 1521.47C763.189 1521.36 760.592 1521.24 757.917 1521.12C745.583 1520.58 745.583 1520.58 733 1520.04C733 1488.35 733 1456.65 733 1424Z" fill="white"/>
<path d="M814 1424C819.61 1424 825.22 1424 831 1424C831 1455.68 831 1487.36 831 1520C825.39 1520 819.78 1520 814 1520C814 1488.32 814 1456.64 814 1424Z" fill="white"/>
<path d="M683 1424C688.94 1424 694.88 1424 701 1424C701 1455.68 701 1487.36 701 1520C695.06 1520 689.12 1520 683 1520C683 1488.32 683 1456.64 683 1424Z" fill="white"/>
</svg>
