<svg width="52" height="52" viewBox="0 0 52 52" fill="none" xmlns="http://www.w3.org/2000/svg">
<path d="M28.7547 0.8125C29.5227 1.35955 30.213 1.94153 30.878 2.60842C30.9674 2.69726 31.0569 2.7861 31.1491 2.87764C31.3369 3.06451 31.5244 3.25172 31.7115 3.43928C31.9935 3.72162 32.2769 4.00244 32.5606 4.28313C33.571 5.28847 34.5114 6.30841 35.3956 7.42667C35.5276 7.5818 35.6606 7.73608 35.7952 7.88899C38.1134 10.5367 40.0179 13.5236 41.7539 16.5739C41.8331 16.7119 41.8331 16.7119 41.9138 16.8526C45.1939 22.6183 47.1935 29.3558 47.1232 35.9943C46.9 35.9205 46.9 35.9205 46.6723 35.8453C40.113 33.7512 32.8571 37.2022 26.9178 39.8059C18.1177 43.6518 18.1177 43.6518 14.625 43.875C15.1369 43.2824 15.7676 42.9635 16.4442 42.5909C19.7877 40.7045 22.8744 38.191 25.2222 35.1499C25.2856 35.0686 25.349 34.9872 25.4143 34.9034C28.6192 30.7414 30.3402 25.8148 31.0154 20.655C31.0283 20.5564 31.0412 20.4578 31.0545 20.3563C31.7971 14.2358 30.9283 7.91537 29.0654 2.06695C28.9338 1.65197 28.8277 1.24236 28.7547 0.8125Z" fill="white"/>
<path d="M17.1805 8.9375C17.7685 9.25273 18.2227 9.64645 18.6902 10.1126C18.7649 10.1862 18.8397 10.2598 18.9166 10.3356C19.0744 10.4914 19.2318 10.6476 19.3888 10.8041C19.6244 11.0385 19.8614 11.2714 20.0986 11.5042C21.0353 12.4294 21.8917 13.3825 22.7141 14.4096C22.8416 14.5604 22.9699 14.7105 23.0993 14.8596C25.4819 17.6215 27.3124 20.7155 28.9572 23.9508C29.039 24.0941 29.039 24.0941 29.1224 24.2402C29.5584 25.2398 28.7664 26.8132 28.4034 27.7735C27.1359 30.9219 25.4301 33.6888 23.0962 36.1715C22.8996 36.3811 22.7033 36.5909 22.5121 36.8052C21.2362 38.2322 20.0362 38.9741 18.2358 39.613C18.0042 39.6997 17.7728 39.787 17.5416 39.8748C17.0763 40.0511 16.6102 40.225 16.1435 40.3975C15.1743 40.7584 14.2232 41.1606 13.2697 41.5599C8.14021 43.6762 8.14021 43.6762 5.6875 43.875C5.6875 43.7824 5.6875 43.6898 5.6875 43.5944C5.91197 43.4347 5.91197 43.4347 6.22845 43.2579C6.34487 43.1915 6.46129 43.1251 6.58123 43.0567C6.70771 42.9852 6.83419 42.9138 6.9645 42.8402C12.6349 39.5528 16.5655 34.744 18.3156 28.4408C19.9116 22.3441 19.3512 15.5154 17.3057 9.59356C17.1805 9.21812 17.1805 9.21812 17.1805 8.9375Z" fill="white"/>
<path d="M49.5625 39.8125C49.5159 39.9077 49.4694 40.0029 49.4214 40.101C49.3074 40.061 49.1933 40.021 49.0758 39.9799C48.9251 39.9276 48.7743 39.8754 48.6189 39.8215C48.47 39.7697 48.321 39.7178 48.1676 39.6644C46.1123 39.008 43.5676 39.217 41.5202 39.8125C41.4208 39.8397 41.3215 39.8669 41.2191 39.8949C37.5864 40.9096 34.179 42.934 30.8845 44.7581C23.2727 48.9629 14.4063 51.9773 5.77426 49.4512C4.70275 49.1086 3.56679 48.7291 2.57859 48.1778C2.53203 48.0826 2.48547 47.9874 2.4375 47.8894C2.59828 47.9189 2.75906 47.9485 2.92471 47.9789C12.2269 49.6247 20.2687 45.9329 28.3021 41.5686C28.9439 41.2201 29.5871 40.8745 30.2328 40.5337C30.3288 40.4828 30.4249 40.432 30.5239 40.3796C36.1016 37.4624 44.1265 35.6645 49.5625 39.8125Z" fill="white"/>
</svg>
