<svg width="65" height="64" viewBox="0 0 65 64" fill="none" xmlns="http://www.w3.org/2000/svg">
<path fill-rule="evenodd" clip-rule="evenodd" d="M38.1 32C38.0997 34.6714 36.2125 36.9709 33.592 37.492C30.9717 38.013 28.3483 36.6104 27.3261 34.1421C26.3039 31.6738 27.1677 28.8272 29.389 27.3432C31.6104 25.8589 34.5709 26.1507 36.46 28.04C37.512 29.089 38.1021 30.5141 38.1 32Z" stroke="#3B82F6" stroke-width="1.75" stroke-linecap="round" stroke-linejoin="round"/>
<path d="M47.5666 31.9973C47.565 30.8927 46.6685 29.9983 45.564 29.9999C44.4594 30.0015 43.565 30.8981 43.5666 32.0026L47.5666 31.9973ZM40.3274 39.8239C39.5456 40.6042 39.544 41.8703 40.324 42.6525C41.1042 43.4343 42.3704 43.4359 43.1525 42.6559L40.3274 39.8239ZM43.5666 31.9973C43.565 33.1018 44.4594 33.9983 45.564 33.9999C46.6685 34.0015 47.565 33.1071 47.5666 32.0026L43.5666 31.9973ZM43.1525 21.344C42.3704 20.5639 41.1042 20.5654 40.324 21.3474C39.544 22.1294 39.5456 23.3958 40.3274 24.1759L43.1525 21.344ZM45.564 29.9999C44.4594 29.9999 43.5666 30.8954 43.5666 31.9999C43.5666 33.1045 44.4594 33.9999 45.564 33.9999V29.9999ZM51.1666 33.9999C52.2712 33.9999 53.1666 33.1045 53.1666 31.9999C53.1666 30.8954 52.2712 29.9999 51.1666 29.9999V33.9999ZM32.5026 47.0666C33.6072 47.065 34.5016 46.1685 34.5 45.0639C34.4984 43.9594 33.6018 43.065 32.4973 43.0666L32.5026 47.0666ZM24.6759 39.8274C23.8958 39.0455 22.6295 39.0439 21.8475 39.8239C21.0655 40.6042 21.064 41.8703 21.844 42.6525L24.6759 39.8274ZM32.5026 43.0666C31.3981 43.065 30.5016 43.9594 30.5 45.0639C30.4984 46.1685 31.3928 47.065 32.4973 47.0666L32.5026 43.0666ZM43.156 42.6525C43.936 41.8703 43.9344 40.6042 43.1525 39.8239C42.3704 39.0439 41.1042 39.0455 40.324 39.8274L43.156 42.6525ZM34.5 45.0639C34.5 43.9594 33.6045 43.0666 32.5 43.0666C31.3954 43.0666 30.5 43.9594 30.5 45.0639H34.5ZM30.5 50.6666C30.5 51.7711 31.3954 52.6666 32.5 52.6666C33.6045 52.6666 34.5 51.7711 34.5 50.6666H30.5ZM17.4333 32.0026C17.4348 33.1071 18.3314 34.0015 19.436 33.9999C20.5406 33.9983 21.4348 33.1018 21.4333 31.9973L17.4333 32.0026ZM24.6725 24.1759C25.4545 23.3958 25.456 22.1294 24.6759 21.3474C23.8958 20.5654 22.6295 20.5639 21.8475 21.344L24.6725 24.1759ZM21.4333 32.0026C21.4348 30.8981 20.5406 30.0015 19.436 29.9999C18.3314 29.9983 17.4348 30.8927 17.4333 31.9973L21.4333 32.0026ZM21.8475 42.6559C22.6295 43.4359 23.8958 43.4343 24.6759 42.6525C25.456 41.8703 25.4545 40.6042 24.6725 39.8239L21.8475 42.6559ZM19.4333 33.9999C20.5379 33.9999 21.4333 33.1045 21.4333 31.9999C21.4333 30.8954 20.5379 29.9999 19.4333 29.9999V33.9999ZM13.8333 29.9999C12.7288 29.9999 11.8333 30.8954 11.8333 31.9999C11.8333 33.1045 12.7288 33.9999 13.8333 33.9999V29.9999ZM32.4973 20.9333C33.6018 20.9347 34.4984 20.0405 34.5 18.9359C34.5016 17.8314 33.6072 16.9347 32.5026 16.9333L32.4973 20.9333ZM21.844 21.3474C21.064 22.1294 21.0655 23.3958 21.8475 24.1759C22.6295 24.9559 23.8958 24.9544 24.6759 24.1724L21.844 21.3474ZM32.4973 16.9333C31.3928 16.9347 30.4984 17.8314 30.5 18.9359C30.5016 20.0405 31.3981 20.9347 32.5026 20.9333L32.4973 16.9333ZM40.324 24.1724C41.1042 24.9544 42.3704 24.9559 43.1525 24.1759C43.9344 23.3958 43.936 22.1294 43.156 21.3474L40.324 24.1724ZM30.5 18.9333C30.5 20.0378 31.3954 20.9333 32.5 20.9333C33.6045 20.9333 34.5 20.0378 34.5 18.9333H30.5ZM34.5 13.3333C34.5 12.2287 33.6045 11.3333 32.5 11.3333C31.3954 11.3333 30.5 12.2287 30.5 13.3333H34.5ZM20.7142 17.3857C19.9332 16.6047 18.6668 16.6047 17.8858 17.3857C17.1047 18.1667 17.1047 19.4331 17.8858 20.2141L20.7142 17.3857ZM21.8475 24.1759C22.6285 24.9569 23.8914 24.9569 24.6725 24.1759C25.4545 23.3958 25.456 22.1294 24.6759 21.3474L21.8475 24.1759ZM44.2859 46.6141C45.0669 47.3951 46.3331 47.3951 47.1141 46.6141C47.8952 45.833 47.8952 44.5669 47.1141 43.7858L44.2859 46.6141ZM43.1525 39.8239C42.3704 39.0439 41.1042 39.0455 40.324 39.8274C39.5429 40.6085 39.5429 41.8714 40.324 42.6525L43.1525 39.8239ZM17.8858 43.7858C17.1047 44.5669 17.1047 45.833 17.8858 46.6141C18.6668 47.3951 19.9332 47.3951 20.7142 46.6141L17.8858 43.7858ZM24.6759 42.6525C25.456 41.8703 25.4545 40.6042 24.6725 39.8239C23.8914 39.0429 22.6285 39.0429 21.8475 39.8239L24.6759 42.6525ZM47.1141 20.2141C47.8952 19.4331 47.8952 18.1667 47.1141 17.3857C46.3331 16.6047 45.0669 16.6047 44.2859 17.3857L47.1141 20.2141ZM40.324 21.3474C39.544 22.1294 39.5456 23.3958 40.3274 24.1759C41.1085 24.9569 42.3714 24.9569 43.1525 24.1759L40.324 21.3474ZM24.6759 21.3474C23.8958 20.5654 22.6295 20.5639 21.8475 21.344C21.0665 22.125 21.0665 23.3948 21.8475 24.1759L24.6759 21.3474ZM27.1258 29.4541C27.9069 30.2351 29.173 30.2351 29.9541 29.4541C30.7352 28.673 30.7352 27.4069 29.9541 26.6257L27.1258 29.4541ZM21.8475 39.8239C21.0655 40.6042 21.064 41.8703 21.844 42.6525C22.6251 43.4335 23.8949 43.4335 24.6759 42.6525L21.8475 39.8239ZM29.9541 37.3741C30.7352 36.593 30.7352 35.3269 29.9541 34.5458C29.173 33.7647 27.9069 33.7647 27.1258 34.5458L29.9541 37.3741ZM40.324 42.6525C41.1042 43.4343 42.3704 43.4359 43.1525 42.6559C43.9336 41.8749 43.9336 40.605 43.1525 39.8239L40.324 42.6525ZM37.8741 34.5458C37.093 33.7647 35.8269 33.7647 35.0458 34.5458C34.2648 35.3269 34.2648 36.593 35.0458 37.3741L37.8741 34.5458ZM43.1525 24.1759C43.9344 23.3958 43.936 22.1294 43.156 21.3474C42.3749 20.5664 41.105 20.5664 40.324 21.3474L43.1525 24.1759ZM35.0458 26.6257C34.2648 27.4069 34.2648 28.673 35.0458 29.4541C35.8269 30.2351 37.093 30.2351 37.8741 29.4541L35.0458 26.6257ZM43.5666 32.0026C43.5706 34.937 42.4048 37.7517 40.3274 39.8239L43.1525 42.6559C45.9834 39.8319 47.572 35.9959 47.5666 31.9973L43.5666 32.0026ZM47.5666 32.0026C47.572 28.0039 45.9834 24.168 43.1525 21.344L40.3274 24.1759C42.4048 26.2482 43.5706 29.0629 43.5666 31.9973L47.5666 32.0026ZM45.564 33.9999H51.1666V29.9999H45.564V33.9999ZM32.4973 43.0666C29.5629 43.0706 26.7482 41.9047 24.6759 39.8274L21.844 42.6525C24.6681 45.4834 28.504 47.0719 32.5026 47.0666L32.4973 43.0666ZM32.4973 47.0666C36.496 47.0719 40.332 45.4834 43.156 42.6525L40.324 39.8274C38.2517 41.9047 35.437 43.0706 32.5026 43.0666L32.4973 47.0666ZM30.5 45.0639V50.6666H34.5V45.0639H30.5ZM21.4333 31.9973C21.4294 29.0629 22.5951 26.2482 24.6725 24.1759L21.8475 21.344C19.0165 24.168 17.4279 28.0039 17.4333 32.0026L21.4333 31.9973ZM17.4333 31.9973C17.4279 35.9959 19.0165 39.8319 21.8475 42.6559L24.6725 39.8239C22.5951 37.7517 21.4294 34.937 21.4333 32.0026L17.4333 31.9973ZM19.4333 29.9999H13.8333V33.9999H19.4333V29.9999ZM32.5026 16.9333C28.504 16.9279 24.6681 18.5165 21.844 21.3474L24.6759 24.1724C26.7482 22.095 29.5629 20.9293 32.4973 20.9333L32.5026 16.9333ZM32.5026 20.9333C35.437 20.9293 38.2517 22.095 40.324 24.1724L43.156 21.3474C40.332 18.5165 36.496 16.9279 32.4973 16.9333L32.5026 20.9333ZM34.5 18.9333V13.3333H30.5V18.9333H34.5ZM17.8858 20.2141L21.8475 24.1759L24.6759 21.3474L20.7142 17.3857L17.8858 20.2141ZM47.1141 43.7858L43.1525 39.8239L40.324 42.6525L44.2859 46.6141L47.1141 43.7858ZM20.7142 46.6141L24.6759 42.6525L21.8475 39.8239L17.8858 43.7858L20.7142 46.6141ZM44.2859 17.3857L40.324 21.3474L43.1525 24.1759L47.1141 20.2141L44.2859 17.3857ZM21.8475 24.1759L27.1258 29.4541L29.9541 26.6257L24.6759 21.3474L21.8475 24.1759ZM24.6759 42.6525L29.9541 37.3741L27.1258 34.5458L21.8475 39.8239L24.6759 42.6525ZM43.1525 39.8239L37.8741 34.5458L35.0458 37.3741L40.324 42.6525L43.1525 39.8239ZM40.324 21.3474L35.0458 26.6257L37.8741 29.4541L43.1525 24.1759L40.324 21.3474Z" fill="#3B82F6"/>
</svg>
