<svg width="53" height="52" viewBox="0 0 53 52" fill="none" xmlns="http://www.w3.org/2000/svg">
<path d="M22.1667 41.1666H13.9333C11.5064 41.1666 10.293 41.1666 9.36604 40.6943C8.55066 40.2789 7.88775 39.6159 7.47231 38.8006C7 37.8737 7 36.6601 7 34.2333V17.7666C7 15.3397 7 14.1262 7.47231 13.1993C7.88775 12.3839 8.55066 11.721 9.36604 11.3056C10.293 10.8333 11.5064 10.8333 13.9333 10.8333H39.0667C41.4935 10.8333 42.7071 10.8333 43.634 11.3056C44.4493 11.721 45.1123 12.3839 45.5277 13.1993C46 14.1262 46 15.3397 46 17.7666V18.4166M20 20.5833V18.4166M20 20.5833H24.3335M20 20.5833C17.5794 20.5832 15.672 20.8566 15.6669 23.4703C15.6631 25.421 15.6669 25.9999 20.0002 25.9999C24.3335 25.9999 24.3335 26.4452 24.3335 28.5278C24.3335 30.0928 24.3333 31.4166 20 31.4166M20 31.4166V33.5833M20 31.4166H15.6669M30.8333 21.6666H37.3333M30.8333 43.3333L35.2208 42.4558C35.6032 42.3793 35.7946 42.3409 35.9729 42.2709C36.1313 42.209 36.2818 42.1284 36.4212 42.0311C36.5785 41.9215 36.7163 41.7837 36.9923 41.5076L46 32.4999C47.1966 31.3033 47.1966 29.3632 46 28.1666C44.8033 26.9699 42.8633 26.9699 41.6667 28.1666L32.659 37.1743C32.3829 37.4503 32.2451 37.5881 32.1355 37.7454C32.0382 37.8847 31.9576 38.0353 31.8956 38.1937C31.8257 38.372 31.7873 38.5633 31.7108 38.9458L30.8333 43.3333Z" stroke="#3B82F6" stroke-width="3.25" stroke-linecap="round" stroke-linejoin="round"/>
</svg>
