<svg width="48" height="48" viewBox="0 0 48 48" fill="none" xmlns="http://www.w3.org/2000/svg">
<path d="M45 27.8198H3V35.4598H45V27.8198Z" stroke="#CBD5E1" stroke-width="3.5" stroke-miterlimit="10"/>
<path d="M3 20.1802H39.28C40.0396 20.1801 40.7917 20.3313 41.4923 20.6249C42.1929 20.9186 42.8279 21.3489 43.3604 21.8907C43.8929 22.4325 44.3121 23.0749 44.5936 23.7805C44.8751 24.4861 45.0133 25.2406 45 26.0002V28.0002H3V20.1802Z" stroke="#CBD5E1" stroke-width="3.5" stroke-miterlimit="10"/>
<path d="M12.54 12.54H6.82C4.71027 12.54 3 14.2503 3 16.36C3 18.4698 4.71027 20.18 6.82 20.18H12.54C14.6497 20.18 16.36 18.4698 16.36 16.36C16.36 14.2503 14.6497 12.54 12.54 12.54Z" stroke="#CBD5E1" stroke-width="3.5" stroke-miterlimit="10"/>
<path d="M20.1801 20.1802V27.8202" stroke="#CBD5E1" stroke-width="3.5" stroke-miterlimit="10"/>
<path d="M3 4.8999V20.1799" stroke="#CBD5E1" stroke-width="3.5" stroke-miterlimit="10"/>
<path d="M3 43.1V35.46" stroke="#CBD5E1" stroke-width="3.5" stroke-miterlimit="10"/>
<path d="M45 43.1V35.46" stroke="#CBD5E1" stroke-width="3.5" stroke-miterlimit="10"/>
</svg>
