<svg width="48" height="48" viewBox="0 0 48 48" fill="none" xmlns="http://www.w3.org/2000/svg">
<path d="M47.7806 22.5887C47.5536 22.2647 47.1828 22.0716 46.7871 22.0716H36.9558C34.1995 19.5589 30.5688 18.12 26.7722 18.12H19.0814C19.7311 17.5042 20.6052 17.1409 21.554 17.1409H26.7329C27.2764 17.1409 27.7537 16.7793 27.9005 16.256C28.0475 15.7327 27.8284 15.1756 27.3643 14.8925C23.686 12.6496 19.4645 11.4639 15.1563 11.4639H10.2704C7.6526 11.4639 5.28754 13.1148 4.38506 15.5722C4.24849 15.9441 4.30222 16.3594 4.52915 16.6845C4.75595 17.0095 5.12732 17.2031 5.52368 17.2031H8.45478L3.46596 28.0239C2.46378 28.6101 1.48077 29.2369 0.519949 29.9061C0.194177 30.1328 0 30.5046 0 30.9014V35.3232C0 35.9929 0.542993 36.536 1.21285 36.536H29.5948C33.6189 36.536 37.4883 35.3159 40.7846 33.0077C44.0809 30.6996 46.5508 27.4808 47.9269 23.6992C48.0621 23.3274 48.0076 22.9129 47.7806 22.5887ZM29.5948 34.1103H2.4257V31.5405C9.26181 26.9307 17.2191 24.4974 25.4793 24.4974H44.9571C42.1246 30.3122 36.1555 34.1103 29.5948 34.1103ZM11.4508 16.498C11.6238 16.1225 11.5938 15.6847 11.3708 15.3364C11.1479 14.9882 10.7628 14.7775 10.3494 14.7775H7.81767C8.49395 14.2174 9.35702 13.8897 10.2704 13.8897H15.1563C17.1639 13.8897 19.1507 14.1769 21.0588 14.735C18.6045 14.9325 16.5248 16.5879 15.7953 18.9791C15.6831 19.3467 15.7519 19.7457 15.9806 20.0546C16.2094 20.3636 16.5709 20.5458 16.9554 20.5458H26.7722C28.901 20.5458 30.9672 21.0853 32.7945 22.0717H25.4794C19.026 22.0717 12.7474 23.4746 6.99147 26.1708L11.4508 16.498Z" fill="#CBD5E1"/>
<path d="M24.4148 27.873H20.8219C20.152 27.873 19.609 28.4162 19.609 29.0859C19.609 29.7556 20.152 30.2987 20.8219 30.2987H24.4148C25.0847 30.2987 25.6277 29.7556 25.6277 29.0859C25.6277 28.4162 25.0847 27.873 24.4148 27.873Z" fill="#CBD5E1"/>
<path d="M34.6875 27.873H31.0946C30.4247 27.873 29.8817 28.4162 29.8817 29.0859C29.8817 29.7556 30.4247 30.2987 31.0946 30.2987H34.6875C35.3574 30.2987 35.9004 29.7556 35.9004 29.0859C35.9004 28.4162 35.3572 27.873 34.6875 27.873Z" fill="#CBD5E1"/>
</svg>
