<svg width="48" height="48" viewBox="0 0 48 48" fill="none" xmlns="http://www.w3.org/2000/svg">
<path fill-rule="evenodd" clip-rule="evenodd" d="M22 6C22 4.89544 22.8954 4 24 4C25.1046 4 26 4.89544 26 6C26 7.10456 25.1046 8 24 8C22.8954 8 22 7.10456 22 6ZM26 11.6586C28.3304 10.8349 30 8.61244 30 6C30 2.6863 27.3138 0 24 0C20.6862 0 18 2.6863 18 6C18 8.61244 19.6696 10.8349 22 11.6586V16H16C14.8954 16 14 16.8954 14 18C14 19.1046 14.8954 20 16 20H22V41.8762C15.1454 41.0214 9.63742 35.8308 8.30712 29.1356L10.5858 31.4142C11.3668 32.1952 12.6332 32.1952 13.4142 31.4142C14.1953 30.6332 14.1953 29.3668 13.4142 28.5858L7.41422 22.5858C6.84222 22.0138 5.98198 21.8426 5.23464 22.1522C4.48728 22.4618 4 23.191 4 24V26C4 37.0456 12.9543 46 24 46C35.0456 46 44 37.0456 44 26V24C44 23.191 43.5128 22.4618 42.7654 22.1522C42.018 21.8426 41.1578 22.0138 40.5858 22.5858L34.5858 28.5858C33.8048 29.3668 33.8048 30.6332 34.5858 31.4142C35.3668 32.1952 36.6332 32.1952 37.4142 31.4142L39.6928 29.1356C38.3626 35.8308 32.8546 41.0214 26 41.8762V20H32C33.1046 20 34 19.1046 34 18C34 16.8954 33.1046 16 32 16H26V11.6586Z" fill="#CBD5E1"/>
</svg>
