<svg width="24" height="24" viewBox="0 0 24 24" fill="none" xmlns="http://www.w3.org/2000/svg">
<g clip-path="url(#clip0_1143_2738)">
<path d="M17 1.89624H7C4.23858 1.89624 2 4.13482 2 6.89624V16.8962C2 19.6577 4.23858 21.8962 7 21.8962H17C19.7614 21.8962 22 19.6577 22 16.8962V6.89624C22 4.13482 19.7614 1.89624 17 1.89624Z" stroke="#F1F5F9" stroke-width="1.5" stroke-linecap="round" stroke-linejoin="round"/>
<path d="M16 11.2662C16.1234 12.0985 15.9812 12.9485 15.5937 13.6953C15.2062 14.4421 14.5931 15.0476 13.8416 15.4259C13.0901 15.8042 12.2384 15.9358 11.4077 15.8022C10.5771 15.6685 9.80971 15.2763 9.21479 14.6814C8.61987 14.0865 8.22768 13.3191 8.09402 12.4885C7.96035 11.6578 8.09202 10.8061 8.47028 10.0546C8.84854 9.30309 9.45414 8.68998 10.2009 8.30248C10.9477 7.91498 11.7977 7.77282 12.63 7.89624C13.4789 8.02212 14.2648 8.4177 14.8716 9.02454C15.4785 9.63139 15.8741 10.4173 16 11.2662Z" stroke="#F1F5F9" stroke-width="1.5" stroke-linecap="round" stroke-linejoin="round"/>
<path d="M17.5 6.39624H17.51" stroke="#F1F5F9" stroke-width="1.5" stroke-linecap="round" stroke-linejoin="round"/>
</g>
<defs>
<clipPath id="clip0_1143_2738">
<rect width="24" height="24" fill="white"/>
</clipPath>
</defs>
</svg>
