<svg width="24" height="24" viewBox="0 0 24 24" fill="none" xmlns="http://www.w3.org/2000/svg">
<path d="M22 4.00897C21.0859 4.61128 20.0738 5.07195 19.0027 5.37324C18.4278 4.75576 17.6638 4.3181 16.814 4.11947C15.9642 3.92083 15.0695 3.9708 14.2511 4.26261C13.4326 4.55442 12.7299 5.07399 12.2378 5.75105C11.7458 6.42812 11.4883 7.23001 11.5 8.04827V8.93995C9.82251 8.98058 8.16031 8.63305 6.66142 7.92829C5.16253 7.22354 3.87348 6.18345 2.90909 4.90065C2.90909 4.90065 -0.909091 12.9258 7.68182 16.4925C5.71596 17.739 3.3741 18.364 1 18.2758C9.59091 22.7342 20.0909 18.2758 20.0909 8.02152C20.09 7.77315 20.0645 7.52539 20.0145 7.28143C20.9888 6.38395 21.6762 5.25082 22 4.00897Z" stroke="#F1F5F9" stroke-width="1.5" stroke-linecap="round" stroke-linejoin="round"/>
</svg>
