<svg width="48" height="48" viewBox="0 0 48 48" fill="none" xmlns="http://www.w3.org/2000/svg">
<path d="M24 6.35303C10.7451 6.35303 0 15.1986 0 23.2942C0 27.351 2.69859 29.4678 7.05881 30.5706V34.5884C7.05881 38.8237 16.9412 41.6472 24 41.6472C31.0588 41.6472 40.9412 38.8236 40.9412 34.5884V30.5706C45.3014 29.4678 48 27.3509 48 23.2942C48 15.1985 37.2549 6.35303 24 6.35303ZM36.7058 30.5705V34.1136C36.2632 34.5225 34.9764 35.3747 32.374 36.1577C29.7653 36.9431 26.6349 37.4118 24 37.4118C21.3651 37.4118 18.2347 36.9431 15.626 36.1577C13.0236 35.3747 11.7368 34.5224 11.2942 34.1136V30.5705V30.3529H36.7059V30.5705H36.7058ZM43.1682 24.989C42.8458 25.2993 42.23 25.7172 41.0729 26.1178H6.927C5.77003 25.7173 5.15409 25.2993 4.83169 24.989C4.52194 24.6909 4.23534 24.2792 4.23534 23.2942C4.23534 20.7292 6.27319 17.6235 9.55359 15.1887C11.4144 13.8078 13.642 12.6636 15.9957 11.8801C18.5709 11.0228 21.264 10.5883 24 10.5883C26.736 10.5883 29.4291 11.0228 32.0043 11.8801C34.358 12.6636 36.5856 13.8077 38.4464 15.1887C41.7268 17.6234 43.7647 20.7291 43.7647 23.2942C43.7647 24.2792 43.4782 24.6908 43.1682 24.989Z" fill="#CBD5E1"/>
<path d="M19.7646 13.4117V19.0588C19.7646 21.3977 23.9999 23.294 23.9999 23.294C23.9999 23.294 28.2351 21.3977 28.2351 19.0588V13.4117H19.7646Z" fill="#CBD5E1"/>
</svg>
