<svg width="48" height="48" viewBox="0 0 48 48" fill="none" xmlns="http://www.w3.org/2000/svg">
<path d="M20 33.168V37.9992C20 40.2084 21.7908 41.9992 24 41.9992C26.2092 41.9992 28 40.2084 28 37.9992V33.168M24 6V8M36.7286 11.2715L35.3144 12.6857M11.2715 11.2715L12.6857 12.6857M8 24H6M42 24H40M34 24C34 29.5228 29.5228 34 24 34C18.4772 34 14 29.5228 14 24C14 18.4772 18.4772 14 24 14C29.5228 14 34 18.4772 34 24Z" stroke="#CBD5E1" stroke-width="3" stroke-linecap="round" stroke-linejoin="round"/>
</svg>
