<svg width="48" height="48" viewBox="0 0 48 48" fill="none" xmlns="http://www.w3.org/2000/svg">
<path d="M46 37.334C46.0005 39.1166 45.4511 40.856 44.4268 42.315C43.4025 43.7739 41.953 44.8813 40.2762 45.4863C38.5994 46.0912 36.7767 46.1642 35.0569 45.6953C33.337 45.2264 31.8037 44.2384 30.666 42.866C29.8538 43.8465 28.8352 44.6358 27.683 45.1775C26.5308 45.7193 25.2732 46.0002 24 46.0002C22.7268 46.0002 21.4692 45.7193 20.317 45.1775C19.1648 44.6358 18.1462 43.8465 17.334 42.866C16.1963 44.2384 14.663 45.2264 12.9431 45.6953C11.2233 46.1642 9.40064 46.0912 7.7238 45.4863C6.04696 44.8813 4.59754 43.7739 3.57321 42.315C2.54887 40.856 1.9995 39.1166 2 37.334C2 36.8036 2.21071 36.2949 2.58579 35.9198C2.96086 35.5447 3.46957 35.334 4 35.334C4.53043 35.334 5.03914 35.5447 5.41421 35.9198C5.78929 36.2949 6 36.8036 6 37.334C6.02528 38.555 6.52808 39.7175 7.40056 40.5721C8.27304 41.4267 9.4457 41.9054 10.667 41.9054C11.8883 41.9054 13.061 41.4267 13.9334 40.5721C14.8059 39.7175 15.3087 38.555 15.334 37.334C15.334 36.8036 15.5447 36.2949 15.9198 35.9198C16.2949 35.5447 16.8036 35.334 17.334 35.334C17.8644 35.334 18.3731 35.5447 18.7482 35.9198C19.1233 36.2949 19.334 36.8036 19.334 37.334C19.334 38.5715 19.8256 39.7583 20.7006 40.6334C21.5757 41.5084 22.7625 42 24 42C25.2375 42 26.4243 41.5084 27.2994 40.6334C28.1744 39.7583 28.666 38.5715 28.666 37.334C28.666 37.0714 28.7177 36.8113 28.8182 36.5686C28.9188 36.326 29.0661 36.1055 29.2518 35.9198C29.4375 35.7341 29.658 35.5867 29.9006 35.4862C30.1433 35.3857 30.4034 35.334 30.666 35.334C30.9286 35.334 31.1887 35.3857 31.4314 35.4862C31.674 35.5867 31.8945 35.7341 32.0802 35.9198C32.2659 36.1055 32.4133 36.326 32.5138 36.5686C32.6143 36.8113 32.666 37.0714 32.666 37.334C32.6913 38.555 33.1941 39.7175 34.0666 40.5721C34.939 41.4267 36.1117 41.9054 37.333 41.9054C38.5543 41.9054 39.727 41.4267 40.5994 40.5721C41.4719 39.7175 41.9747 38.555 42 37.334C42 36.8036 42.2107 36.2949 42.5858 35.9198C42.9609 35.5447 43.4696 35.334 44 35.334C44.5304 35.334 45.0391 35.5447 45.4142 35.9198C45.7893 36.2949 46 36.8036 46 37.334ZM34.04 33.6L35.756 25.014L24 18.304L12.244 25.022L13.96 33.6C14.0441 34.1116 13.9263 34.636 13.6313 35.0624C13.3363 35.4888 12.8872 35.784 12.3787 35.8857C11.8703 35.9874 11.3422 35.8876 10.9059 35.6075C10.4696 35.3273 10.1591 34.8886 10.04 34.384L8.04 24.384C7.95883 23.9746 8.00775 23.5502 8.1799 23.17C8.35205 22.7898 8.63881 22.473 9 22.264L12 20.554V12C12 10.9391 12.4214 9.92172 13.1716 9.17157C13.9217 8.42143 14.9391 8 16 8H22V4C22 3.46957 22.2107 2.96086 22.5858 2.58579C22.9609 2.21071 23.4696 2 24 2C24.5304 2 25.0391 2.21071 25.4142 2.58579C25.7893 2.96086 26 3.46957 26 4V8H32C33.0609 8 34.0783 8.42143 34.8284 9.17157C35.5786 9.92172 36 10.9391 36 12V20.554L39 22.264C39.3642 22.474 39.653 22.7934 39.8253 23.1768C39.9976 23.5602 40.0448 23.9882 39.96 24.4L37.96 34.4C37.8678 34.8517 37.6223 35.2578 37.2652 35.5493C36.908 35.8409 36.4611 36.0001 36 36C35.8656 36.0009 35.7315 35.9875 35.6 35.96C35.3426 35.9075 35.098 35.8048 34.8803 35.6578C34.6626 35.5108 34.476 35.3223 34.3311 35.1032C34.1862 34.884 34.086 34.6385 34.036 34.3805C33.9861 34.1226 33.9874 33.8574 34.04 33.6ZM32 12H16V18.268L23 14.268C23.3021 14.0954 23.6441 14.0046 23.992 14.0046C24.3399 14.0046 24.6819 14.0954 24.984 14.268L31.984 18.268L32 12Z" fill="#CBD5E1"/>
</svg>
