<svg width="48" height="48" viewBox="0 0 48 48" fill="none" xmlns="http://www.w3.org/2000/svg">
<g clip-path="url(#clip0_1191_7955)">
<path fill-rule="evenodd" clip-rule="evenodd" d="M21.75 10C20.7835 10 20 10.7835 20 11.75V15.25H17.375C16.572 15.25 15.872 15.7965 15.6772 16.5756L13.3836 25.75H7.75001C7.16932 25.75 6.62644 26.038 6.30089 26.5189C5.97534 26.9997 5.90951 27.6108 6.12517 28.1499L9.62517 36.9C9.89093 37.5643 10.5344 38 11.25 38H41C41.7 38 42.3328 37.5828 42.6084 36.9393L47.8584 24.6893C48.0903 24.1487 48.0348 23.5277 47.7109 23.0366C47.3871 22.5456 46.8382 22.25 46.25 22.25H40.7949L40.1115 16.7829C40.002 15.9072 39.2575 15.25 38.375 15.25H32.25V11.75C32.25 10.7835 31.4665 10 30.5 10H21.75ZM25.9185 25.75H16.9914L18.7413 18.75H36.8301L37.2676 22.25H30.9132C28.9245 22.25 27.1066 23.3735 26.2174 25.1522L25.9185 25.75ZM29.3478 26.7174C29.6442 26.1245 30.2503 25.75 30.9132 25.75H39.25H43.5961L39.846 34.5H12.4348L10.3348 29.25H14.75H25.9185C27.2441 29.25 28.456 28.501 29.0489 27.3152L29.3478 26.7174Z" fill="#CBD5E1"/>
<path d="M12.1965 8.95048C12.2021 9.38122 12.1493 9.81073 12.0397 10.2273C11.9445 10.5788 11.807 10.9174 11.6302 11.2357C11.4682 11.5234 11.2804 11.7957 11.0691 12.0494C10.8639 12.2947 10.6628 12.5273 10.4712 12.7421L10.446 12.7694C10.267 12.9589 10.1007 13.141 9.95334 13.3126C9.79407 13.4975 9.65307 13.6974 9.53228 13.9094C9.40579 14.1335 9.30884 14.3731 9.24386 14.6221C9.17058 14.9174 9.13555 15.2209 9.13965 15.5252V15.5778C9.12735 15.8569 9.00785 16.1204 8.80607 16.3134C8.60429 16.5065 8.33578 16.6143 8.05649 16.6143C7.77721 16.6143 7.5087 16.5065 7.30692 16.3134C7.10514 16.1204 6.98564 15.8569 6.97334 15.5778V15.5252C6.96897 15.0337 7.02805 14.5437 7.14913 14.0673C7.26187 13.6371 7.42956 13.2231 7.64807 12.8357C7.83876 12.503 8.06082 12.1893 8.31123 11.8989C8.47755 11.7052 8.66386 11.4989 8.86386 11.2894C9.0386 11.0926 9.22176 10.8789 9.41123 10.6547C9.53771 10.5024 9.6501 10.3389 9.74702 10.1663C9.8363 10.0014 9.90556 9.82649 9.95334 9.64521C10.0102 9.41816 10.036 9.18446 10.0302 8.95048C10.0346 8.67529 9.98192 8.40217 9.87544 8.14837C9.77458 7.8997 9.62579 7.6733 9.43755 7.48206C9.25099 7.29397 9.02923 7.14446 8.78492 7.04206C8.5448 6.93831 8.28541 6.88665 8.02386 6.89048C7.75422 6.88596 7.48665 6.93832 7.2386 7.04416C6.73318 7.25414 6.33183 7.65624 6.12281 8.16206C6.01713 8.41052 5.96477 8.6784 5.96913 8.94837V8.97784C5.97558 9.1241 5.95234 9.27016 5.90081 9.40719C5.84929 9.54423 5.77054 9.66941 5.66933 9.77518C5.56811 9.88096 5.44652 9.96515 5.31189 10.0227C5.17726 10.0802 5.03237 10.1098 4.88597 10.1098C4.73957 10.1098 4.59468 10.0802 4.46005 10.0227C4.32542 9.96515 4.20383 9.88096 4.10261 9.77518C4.00139 9.66941 3.92265 9.54423 3.87112 9.40719C3.8196 9.27016 3.79636 9.1241 3.80281 8.97784V8.94837C3.79841 8.38405 3.91095 7.82494 4.13334 7.30627C4.56081 6.29181 5.36705 5.48406 6.38071 5.05469C6.89956 4.83169 7.45914 4.71913 8.02386 4.72416C8.58243 4.71948 9.13576 4.83208 9.64807 5.05469C10.6551 5.48503 11.4532 6.29302 11.8712 7.30521C12.0911 7.82562 12.2011 8.38554 12.1965 8.95048ZM9.31439 19.2768C9.38651 19.449 9.42365 19.6338 9.42365 19.8205C9.42365 20.0072 9.38651 20.192 9.31439 20.3642C9.17173 20.7009 8.90372 20.9689 8.56702 21.1115L8.56176 21.1147C8.39377 21.1866 8.2129 21.2234 8.03018 21.2231C7.75141 21.2256 7.47816 21.1453 7.24505 20.9924C7.01194 20.8395 6.82946 20.6209 6.72071 20.3642C6.61139 20.109 6.58144 19.8268 6.63476 19.5544C6.68808 19.282 6.8222 19.0319 7.01965 18.8368C7.15201 18.7099 7.30696 18.6088 7.47649 18.5389C7.65177 18.4653 7.84007 18.4277 8.03018 18.4284C8.21288 18.4282 8.39371 18.4651 8.56176 18.5368L8.56702 18.54C8.73294 18.6104 8.88455 18.7107 9.01439 18.8357C9.14267 18.961 9.24466 19.1106 9.31439 19.2757V19.2768Z" fill="#CBD5E1"/>
</g>
<defs>
<clipPath id="clip0_1191_7955">
<rect width="48" height="48" fill="white"/>
</clipPath>
</defs>
</svg>
